<svg xmlns="http://www.w3.org/2000/svg" viewBox="0 0 396.929 396.929" width="64" height="64" enable-background="new 0 0 396.929 396.929"><g fill="#fff"><path d="M288.5 188.574h53.139v144.679h-53.139zM277.381 155.798h75.442v32.776h-75.442zM277.381 333.253h75.442v32.776h-75.442zM160.565 155.798h75.442v32.776h-75.442zM160.565 333.253h75.442v32.776h-75.442zM43.684 155.798h75.442v32.776h-75.442zM43.684 333.253h75.442v32.776h-75.442zM27.005 126.772h342.497v29.026h-342.497z"/></g><path d="M389.284 125.543l-191.03-118.109-191.03 118.109c-.646.646-.646 1.228 0 1.228h382.061c.581.001.581-.646-.001-1.228z" fill="#F16051"/><circle cx="198.254" cy="75.442" r="23.467" fill="#fff"/><path fill="#4FBF9F" d="M6.642 359.822h383.289v30.901h-383.289z"/><path fill="#fff" d="M171.684 188.574h53.139v144.679h-53.139z"/><g fill="#193651"><path d="M192.048 212.687h12.347v12.347h-12.347zM192.048 245.463h12.347v12.347h-12.347zM192.048 278.238h12.347v12.347h-12.347z"/></g><path fill="#fff" d="M54.868 188.574h53.139v144.679h-53.139z"/><g fill="#193651"><path d="M383.725 359.822v24.695h-370.942v-24.695h-12.347v37.107h395.636v-37.107zM392.969 119.984l-194.715-119.984-194.133 119.984c-3.038 1.228-4.331 4.913-3.685 8.016.646 3.103 3.685 4.913 6.788 4.913h13.576v29.026h16.679v32.776h11.119v132.267h-11.055v32.776h87.79v-32.776h-11.119v-132.202h11.119v-32.776h29.026v32.776h11.119v132.267h-11.119v32.776h87.79v-32.776h-11.119v-132.267h11.119v-32.776h29.026v32.776h11.119v132.267h-11.119v32.129h12.412v-19.782h63.03v19.782h12.347v-32.129h-11.119v-132.267h11.119v-32.776h17.325v-29.026h13.576c3.103 0 5.56-1.875 6.788-4.913.066-3.168-1.227-6.853-3.684-8.081zm-280.048 239.838h-63.031v-20.428h63.03v20.428zm-51.912-32.776v-132.266h40.792v132.267h-40.792zm51.912-144.678h-63.031v-20.428h63.03v20.428zm116.88 177.454h-63.03v-20.428h63.03v20.428zm-51.975-32.776v-132.266h40.792v132.267h-40.792zm51.975-144.678h-63.03v-20.428h63.03v20.428zm105.697 144.678h-40.792v-132.266h40.792v132.266zm11.119-144.678h-63.03v-20.428h63.03v20.428zm16.679-32.711h-330.085v-16.679h330.085v16.679zm-336.872-29.091l171.83-105.697 171.83 106.343h-343.66v-.646z"/></g></svg>