<svg xmlns="http://www.w3.org/2000/svg" height="64" viewBox="0 -72 464 464" width="64"><g><path d="M0 304c0 8.836 7.164 16 16 16h432c8.836 0 16-7.164 16-16v-192h-464zm88-16zm128 0zm120-64c17.672 0 32 14.328 32 32 0-17.672 14.328-32 32-32s32 14.328 32 32-14.328 32-32 32-32-14.328-32-32c0 17.672-14.328 32-32 32s-32-14.328-32-32 14.328-32 32-32zm-96 32zm-120 0zm-48 32zm0 0M448 0h-432c-8.836 0-16 7.164-16 16v48h464v-48c0-8.836-7.164-16-16-16zm0 0" fill="rgb(100%,85.490196%,66.666667%)"/><path d="M0 112h464v-48h-464zm448-24zm-32 0zm-32 0zm-32 0zm-32 0zm-32 0zm-32 0zm-32 0zm-32 0zm-32 0zm-32 0zm-32 0zm-32 0zm-32 0zm0 0" fill="rgb(34.117647%,33.72549%,36.078431%)"/><path d="M368 232.215c-10.266-13.883-28.281-19.609-44.684-14.203-16.398 5.402-27.477 20.723-27.477 37.988 0 17.266 11.078 32.586 27.477 37.988 16.402 5.406 34.418-.32 44.684-14.203-10.668-14.063-10.668-33.508 0-47.57zm0 0" fill="rgb(100%,31.372549%,13.72549%)"/><path d="M400 216c-12.637.023-24.512 6.039-32 16.215 10.668 14.063 10.668 33.508 0 47.57 11.227 15.09 31.461 20.305 48.586 12.52 17.121-7.785 26.492-26.465 22.496-44.844-3.996-18.383-20.273-31.484-39.082-31.461zm0 0" fill="rgb(100%,68.627451%,27.45098%)"/><path d="M368 232.215c-10.668 14.063-10.668 33.508 0 47.57 10.668-14.063 10.668-33.508 0-47.57zm0 0" fill="rgb(100%,52.156863%,42.745098%)"/><path d="M16 80h16v16h-16zm0 0M48 80h16v16h-16zm0 0M80 80h16v16h-16zm0 0M112 80h16v16h-16zm0 0M112 80h16v16h-16zm0 0M144 80h16v16h-16zm0 0M176 80h16v16h-16zm0 0M208 80h16v16h-16zm0 0M240 80h16v16h-16zm0 0M272 80h16v16h-16zm0 0M304 80h16v16h-16zm0 0M336 80h16v16h-16zm0 0M368 80h16v16h-16zm0 0M400 80h16v16h-16zm0 0M432 80h16v16h-16zm0 0" fill="rgb(94.509804%,94.901961%,94.901961%)"/><path d="M24 280h48v16h-48zm0 0M88 280h112v16h-112zm0 0M24 248h96v16h-96zm0 0M144 248h96v16h-96zm0 0M216 280h24v16h-24zm0 0" fill="#C49A6C"/></g></svg>